<svg xmlns:xlink="http://www.w3.org/1999/xlink" width="4.996ex" height="2.676ex" style="font-size: 15px; vertical-align: -0.338ex;" viewBox="0 -1006.6 2151 1152.1" role="img" focusable="false" xmlns="http://www.w3.org/2000/svg">
<defs>
<path stroke-width="1" id="E1-MJMATHI-65" d="M39 168Q39 225 58 272T107 350T174 402T244 433T307 442H310Q355 442 388 420T421 355Q421 265 310 237Q261 224 176 223Q139 223 138 221Q138 219 132 186T125 128Q125 81 146 54T209 26T302 45T394 111Q403 121 406 121Q410 121 419 112T429 98T420 82T390 55T344 24T281 -1T205 -11Q126 -11 83 42T39 168ZM373 353Q367 405 305 405Q272 405 244 391T199 357T170 316T154 280T149 261Q149 260 169 260Q282 260 327 284T373 353Z"></path>
<path stroke-width="1" id="E1-MJMATHBI-71" d="M38 159Q38 209 58 260T113 355T205 425T327 452Q338 452 348 451T366 449T382 444T394 440T405 434T414 429T422 423T429 418Q440 429 481 440T533 452Q540 452 545 447T550 437Q550 432 481 152Q410 -130 410 -131T437 -132H452Q479 -132 479 -150Q476 -187 462 -192Q458 -194 451 -194Q447 -194 414 -193T330 -192Q277 -192 249 -193T217 -194Q202 -194 197 -179Q197 -175 201 -159Q206 -139 211 -136T243 -132H283L319 15L307 10Q295 4 270 -2T220 -8Q134 -8 86 37T38 159ZM402 353Q402 358 395 368T369 390T324 401Q301 401 282 394T249 369T226 338T208 297T196 258T186 218Q166 141 166 107Q166 44 229 44Q265 44 294 61T337 95Q341 100 371 222T402 353Z"></path>
<path stroke-width="1" id="E1-MJMATHI-69" d="M184 600Q184 624 203 642T247 661Q265 661 277 649T290 619Q290 596 270 577T226 557Q211 557 198 567T184 600ZM21 287Q21 295 30 318T54 369T98 420T158 442Q197 442 223 419T250 357Q250 340 236 301T196 196T154 83Q149 61 149 51Q149 26 166 26Q175 26 185 29T208 43T235 78T260 137Q263 149 265 151T282 153Q302 153 302 143Q302 135 293 112T268 61T223 11T161 -11Q129 -11 102 10T74 74Q74 91 79 106T122 220Q160 321 166 341T173 380Q173 404 156 404H154Q124 404 99 371T61 287Q60 286 59 284T58 281T56 279T53 278T49 278T41 278H27Q21 284 21 287Z"></path>
<path stroke-width="1" id="E1-MJMAIN-22C5" d="M78 250Q78 274 95 292T138 310Q162 310 180 294T199 251Q199 226 182 208T139 190T96 207T78 250Z"></path>
<path stroke-width="1" id="E1-MJMATHBI-6B" d="M99 -8Q71 -8 58 9T45 39Q45 51 116 336L188 622H184Q183 622 179 622T169 623T157 624T146 624T136 624T131 625Q119 628 119 642Q119 647 123 661T129 679Q133 684 144 685T220 690Q293 694 307 694Q324 694 328 679Q328 674 280 482Q231 290 231 287Q231 285 234 286Q259 302 294 334T356 390T420 433T493 452Q528 452 546 427T564 364Q564 308 538 282T480 256Q456 256 441 269T425 308Q425 339 444 359T483 384L502 389Q502 395 496 398Q493 400 483 400Q465 400 449 395T409 374T373 347T323 305T268 257Q274 256 282 256Q312 251 329 247T371 232T411 202Q431 181 431 146Q431 132 427 110T422 73Q422 44 440 44H442Q462 44 478 64T502 102T514 141Q518 157 522 159T547 162H558Q578 162 578 148Q578 118 537 56T440 -7H432Q374 -7 337 21T299 94Q299 103 301 116T304 139Q304 164 281 181T235 202L212 206H211Q176 47 160 24Q137 -8 99 -8Z"></path>
<path stroke-width="1" id="E1-MJMATHI-6A" d="M297 596Q297 627 318 644T361 661Q378 661 389 651T403 623Q403 595 384 576T340 557Q322 557 310 567T297 596ZM288 376Q288 405 262 405Q240 405 220 393T185 362T161 325T144 293L137 279Q135 278 121 278H107Q101 284 101 286T105 299Q126 348 164 391T252 441Q253 441 260 441T272 442Q296 441 316 432Q341 418 354 401T367 348V332L318 133Q267 -67 264 -75Q246 -125 194 -164T75 -204Q25 -204 7 -183T-12 -137Q-12 -110 7 -91T53 -71Q70 -71 82 -81T95 -112Q95 -148 63 -167Q69 -168 77 -168Q111 -168 139 -140T182 -74L193 -32Q204 11 219 72T251 197T278 308T289 365Q289 372 288 376Z"></path>
</defs>
<g stroke="currentColor" fill="currentColor" stroke-width="0" transform="matrix(1 0 0 -1 0 0)">
 <use xlink:href="#E1-MJMATHI-65" x="0" y="0"></use>
<g transform="translate(466,412)">
 <use transform="scale(0.707)" xlink:href="#E1-MJMATHBI-71" x="0" y="0"></use>
 <use transform="scale(0.574)" xlink:href="#E1-MJMATHI-69" x="668" y="-291"></use>
 <use transform="scale(0.707)" xlink:href="#E1-MJMAIN-22C5" x="922" y="0"></use>
<g transform="translate(849,0)">
 <use transform="scale(0.707)" xlink:href="#E1-MJMATHBI-6B" x="0" y="0"></use>
 <use transform="scale(0.574)" xlink:href="#E1-MJMATHI-6A" x="744" y="-238"></use>
</g>
</g>
</g>
</svg>